# xmcd CD database file
#
# Track frame offsets:
#	150
#	36158
#	57182
#	74144
#	90483
#	111349
#	133079
#	160157
#	183076
#	195079
#	206292
#
# Disc length: 3161 seconds
#
# Revision: 0
# Processed by: cddbd v1.5.2PL0 Copyright (c) Steve Scherf et al.
# Submitted via: CDex 2.02
#
DISCID=920c570b
DTITLE=Reggie Miles - 51 Highway Blues
DYEAR=2006
DGENRE=Blues
TTITLE0=51 Highway Blues
TTITLE1=Back Door Man
TTITLE2=Blues In My Lap
TTITLE3=Broke Down Engine
TTITLE4=Last Dime Blues
TTITLE5=Blues About Midnight
TTITLE6=Mourning Blues
TTITLE7=Motherless Children
TTITLE8=What Got Wrong?
TTITLE9=Stray Dog Blues
TTITLE10=Lost Track Blues
EXTD=YEAR: 2006
EXTT0=
EXTT1=
EXTT2=
EXTT3=
EXTT4=
EXTT5=
EXTT6=
EXTT7=
EXTT8=
EXTT9=
EXTT10=
PLAYORDER=
